<mxfile host="Electron" agent="Mozilla/5.0 (Windows NT 10.0; Win64; x64) AppleWebKit/537.36 (KHTML, like Gecko) draw.io/26.0.16 Chrome/132.0.6834.196 Electron/34.2.0 Safari/537.36" version="26.0.16">
  <diagram name="Page-1" id="gqwDYdsdBw4bvVbZSvpH">
    <mxGraphModel dx="1674" dy="3036" grid="1" gridSize="10" guides="1" tooltips="1" connect="1" arrows="1" fold="1" page="1" pageScale="1" pageWidth="850" pageHeight="1100" math="0" shadow="0">
      <root>
        <mxCell id="0" />
        <mxCell id="1" parent="0" />
        <mxCell id="yxDVQ3og8tzMWJ6YALpz-32" style="edgeStyle=orthogonalEdgeStyle;rounded=0;orthogonalLoop=1;jettySize=auto;html=1;exitX=0.75;exitY=1;exitDx=0;exitDy=0;entryX=0.25;entryY=0;entryDx=0;entryDy=0;" edge="1" parent="1" source="yxDVQ3og8tzMWJ6YALpz-1" target="yxDVQ3og8tzMWJ6YALpz-3">
          <mxGeometry relative="1" as="geometry" />
        </mxCell>
        <mxCell id="yxDVQ3og8tzMWJ6YALpz-1" value="load balencer" style="rounded=1;whiteSpace=wrap;html=1;" vertex="1" parent="1">
          <mxGeometry x="755" y="-850" width="120" height="60" as="geometry" />
        </mxCell>
        <mxCell id="yxDVQ3og8tzMWJ6YALpz-2" value="load balencer" style="rounded=1;whiteSpace=wrap;html=1;" vertex="1" parent="1">
          <mxGeometry x="170" y="-810" width="120" height="60" as="geometry" />
        </mxCell>
        <mxCell id="yxDVQ3og8tzMWJ6YALpz-33" style="edgeStyle=orthogonalEdgeStyle;rounded=0;orthogonalLoop=1;jettySize=auto;html=1;exitX=0;exitY=0;exitDx=0;exitDy=0;entryX=1;entryY=0.5;entryDx=0;entryDy=0;" edge="1" parent="1" source="yxDVQ3og8tzMWJ6YALpz-3" target="yxDVQ3og8tzMWJ6YALpz-27">
          <mxGeometry relative="1" as="geometry">
            <Array as="points">
              <mxPoint x="640" y="-710" />
              <mxPoint x="640" y="-740" />
            </Array>
          </mxGeometry>
        </mxCell>
        <mxCell id="yxDVQ3og8tzMWJ6YALpz-34" style="edgeStyle=orthogonalEdgeStyle;rounded=0;orthogonalLoop=1;jettySize=auto;html=1;exitX=0;exitY=0.5;exitDx=0;exitDy=0;entryX=1;entryY=0.25;entryDx=0;entryDy=0;" edge="1" parent="1" source="yxDVQ3og8tzMWJ6YALpz-3" target="yxDVQ3og8tzMWJ6YALpz-26">
          <mxGeometry relative="1" as="geometry" />
        </mxCell>
        <mxCell id="yxDVQ3og8tzMWJ6YALpz-67" value="i want to play" style="edgeLabel;html=1;align=center;verticalAlign=middle;resizable=0;points=[];" vertex="1" connectable="0" parent="yxDVQ3og8tzMWJ6YALpz-34">
          <mxGeometry x="0.0316" relative="1" as="geometry">
            <mxPoint as="offset" />
          </mxGeometry>
        </mxCell>
        <mxCell id="yxDVQ3og8tzMWJ6YALpz-36" style="edgeStyle=orthogonalEdgeStyle;rounded=0;orthogonalLoop=1;jettySize=auto;html=1;exitX=1;exitY=0.5;exitDx=0;exitDy=0;entryX=0;entryY=0.25;entryDx=0;entryDy=0;" edge="1" parent="1" source="yxDVQ3og8tzMWJ6YALpz-3" target="yxDVQ3og8tzMWJ6YALpz-19">
          <mxGeometry relative="1" as="geometry" />
        </mxCell>
        <mxCell id="yxDVQ3og8tzMWJ6YALpz-66" value="login or sign up" style="edgeLabel;html=1;align=center;verticalAlign=middle;resizable=0;points=[];" vertex="1" connectable="0" parent="yxDVQ3og8tzMWJ6YALpz-36">
          <mxGeometry x="-0.1407" y="-1" relative="1" as="geometry">
            <mxPoint as="offset" />
          </mxGeometry>
        </mxCell>
        <mxCell id="yxDVQ3og8tzMWJ6YALpz-37" style="edgeStyle=orthogonalEdgeStyle;rounded=0;orthogonalLoop=1;jettySize=auto;html=1;exitX=0.75;exitY=1;exitDx=0;exitDy=0;entryX=0;entryY=0;entryDx=0;entryDy=0;" edge="1" parent="1" source="yxDVQ3og8tzMWJ6YALpz-3" target="yxDVQ3og8tzMWJ6YALpz-5">
          <mxGeometry relative="1" as="geometry" />
        </mxCell>
        <mxCell id="yxDVQ3og8tzMWJ6YALpz-65" value="read/write" style="edgeLabel;html=1;align=center;verticalAlign=middle;resizable=0;points=[];" vertex="1" connectable="0" parent="yxDVQ3og8tzMWJ6YALpz-37">
          <mxGeometry x="-0.3733" y="2" relative="1" as="geometry">
            <mxPoint as="offset" />
          </mxGeometry>
        </mxCell>
        <mxCell id="yxDVQ3og8tzMWJ6YALpz-43" style="edgeStyle=orthogonalEdgeStyle;rounded=0;orthogonalLoop=1;jettySize=auto;html=1;exitX=0;exitY=1;exitDx=0;exitDy=0;entryX=1;entryY=0;entryDx=0;entryDy=0;" edge="1" parent="1" source="yxDVQ3og8tzMWJ6YALpz-3" target="yxDVQ3og8tzMWJ6YALpz-13">
          <mxGeometry relative="1" as="geometry" />
        </mxCell>
        <mxCell id="yxDVQ3og8tzMWJ6YALpz-64" value="read/write" style="edgeLabel;html=1;align=center;verticalAlign=middle;resizable=0;points=[];" vertex="1" connectable="0" parent="yxDVQ3og8tzMWJ6YALpz-43">
          <mxGeometry x="0.0813" y="-1" relative="1" as="geometry">
            <mxPoint as="offset" />
          </mxGeometry>
        </mxCell>
        <mxCell id="yxDVQ3og8tzMWJ6YALpz-3" value="job trackers" style="rounded=1;whiteSpace=wrap;html=1;" vertex="1" parent="1">
          <mxGeometry x="820" y="-710" width="120" height="60" as="geometry" />
        </mxCell>
        <mxCell id="yxDVQ3og8tzMWJ6YALpz-4" value="game engine" style="rounded=1;whiteSpace=wrap;html=1;" vertex="1" parent="1">
          <mxGeometry x="260" y="-570" width="120" height="60" as="geometry" />
        </mxCell>
        <mxCell id="yxDVQ3og8tzMWJ6YALpz-38" style="edgeStyle=orthogonalEdgeStyle;rounded=0;orthogonalLoop=1;jettySize=auto;html=1;exitX=0.25;exitY=1;exitDx=0;exitDy=0;entryX=0.25;entryY=0;entryDx=0;entryDy=0;" edge="1" parent="1" source="yxDVQ3og8tzMWJ6YALpz-5" target="yxDVQ3og8tzMWJ6YALpz-10">
          <mxGeometry relative="1" as="geometry" />
        </mxCell>
        <mxCell id="yxDVQ3og8tzMWJ6YALpz-5" value="members data graber&amp;nbsp;" style="rounded=1;whiteSpace=wrap;html=1;" vertex="1" parent="1">
          <mxGeometry x="960" y="-550" width="120" height="60" as="geometry" />
        </mxCell>
        <mxCell id="yxDVQ3og8tzMWJ6YALpz-6" value="hasher index" style="rounded=1;whiteSpace=wrap;html=1;" vertex="1" parent="1">
          <mxGeometry x="160" y="-690" width="120" height="60" as="geometry" />
        </mxCell>
        <mxCell id="yxDVQ3og8tzMWJ6YALpz-7" value="hasher" style="rounded=1;whiteSpace=wrap;html=1;" vertex="1" parent="1">
          <mxGeometry x="950" y="-330" width="120" height="60" as="geometry" />
        </mxCell>
        <mxCell id="yxDVQ3og8tzMWJ6YALpz-22" style="edgeStyle=orthogonalEdgeStyle;rounded=0;orthogonalLoop=1;jettySize=auto;html=1;exitX=0.5;exitY=1;exitDx=0;exitDy=0;entryX=0.5;entryY=0;entryDx=0;entryDy=0;" edge="1" parent="1" source="yxDVQ3og8tzMWJ6YALpz-8" target="yxDVQ3og8tzMWJ6YALpz-12">
          <mxGeometry relative="1" as="geometry" />
        </mxCell>
        <mxCell id="yxDVQ3og8tzMWJ6YALpz-8" value="load balncer" style="rounded=1;whiteSpace=wrap;html=1;" vertex="1" parent="1">
          <mxGeometry x="425" y="-430" width="120" height="60" as="geometry" />
        </mxCell>
        <mxCell id="yxDVQ3og8tzMWJ6YALpz-25" style="edgeStyle=orthogonalEdgeStyle;rounded=0;orthogonalLoop=1;jettySize=auto;html=1;exitX=0.5;exitY=1;exitDx=0;exitDy=0;entryX=0.25;entryY=0;entryDx=0;entryDy=0;" edge="1" parent="1" source="yxDVQ3og8tzMWJ6YALpz-9" target="yxDVQ3og8tzMWJ6YALpz-16">
          <mxGeometry relative="1" as="geometry" />
        </mxCell>
        <mxCell id="yxDVQ3og8tzMWJ6YALpz-9" value="rang hasher" style="rounded=1;whiteSpace=wrap;html=1;" vertex="1" parent="1">
          <mxGeometry x="580" y="-330" width="120" height="60" as="geometry" />
        </mxCell>
        <mxCell id="yxDVQ3og8tzMWJ6YALpz-10" value="load balncer" style="rounded=1;whiteSpace=wrap;html=1;" vertex="1" parent="1">
          <mxGeometry x="960" y="-430" width="120" height="60" as="geometry" />
        </mxCell>
        <mxCell id="yxDVQ3og8tzMWJ6YALpz-11" value="load balncer" style="rounded=1;whiteSpace=wrap;html=1;" vertex="1" parent="1">
          <mxGeometry x="580" y="-430" width="120" height="60" as="geometry" />
        </mxCell>
        <mxCell id="yxDVQ3og8tzMWJ6YALpz-24" style="edgeStyle=orthogonalEdgeStyle;rounded=0;orthogonalLoop=1;jettySize=auto;html=1;exitX=0.5;exitY=1;exitDx=0;exitDy=0;entryX=0.5;entryY=0;entryDx=0;entryDy=0;" edge="1" parent="1" source="yxDVQ3og8tzMWJ6YALpz-12" target="yxDVQ3og8tzMWJ6YALpz-18">
          <mxGeometry relative="1" as="geometry" />
        </mxCell>
        <mxCell id="yxDVQ3og8tzMWJ6YALpz-12" value="index hasher" style="rounded=1;whiteSpace=wrap;html=1;" vertex="1" parent="1">
          <mxGeometry x="430" y="-330" width="120" height="60" as="geometry" />
        </mxCell>
        <mxCell id="yxDVQ3og8tzMWJ6YALpz-20" style="edgeStyle=orthogonalEdgeStyle;rounded=0;orthogonalLoop=1;jettySize=auto;html=1;exitX=0.25;exitY=1;exitDx=0;exitDy=0;entryX=0.75;entryY=0;entryDx=0;entryDy=0;" edge="1" parent="1" source="yxDVQ3og8tzMWJ6YALpz-13" target="yxDVQ3og8tzMWJ6YALpz-8">
          <mxGeometry relative="1" as="geometry" />
        </mxCell>
        <mxCell id="yxDVQ3og8tzMWJ6YALpz-13" value="game data manger" style="rounded=1;whiteSpace=wrap;html=1;" vertex="1" parent="1">
          <mxGeometry x="500" y="-530" width="120" height="60" as="geometry" />
        </mxCell>
        <mxCell id="yxDVQ3og8tzMWJ6YALpz-29" style="edgeStyle=orthogonalEdgeStyle;rounded=0;orthogonalLoop=1;jettySize=auto;html=1;exitX=0.5;exitY=1;exitDx=0;exitDy=0;entryX=0.5;entryY=0;entryDx=0;entryDy=0;" edge="1" parent="1" source="yxDVQ3og8tzMWJ6YALpz-14" target="yxDVQ3og8tzMWJ6YALpz-15">
          <mxGeometry relative="1" as="geometry" />
        </mxCell>
        <mxCell id="yxDVQ3og8tzMWJ6YALpz-14" value="load balencer" style="rounded=1;whiteSpace=wrap;html=1;" vertex="1" parent="1">
          <mxGeometry x="510" y="-1080" width="120" height="60" as="geometry" />
        </mxCell>
        <mxCell id="yxDVQ3og8tzMWJ6YALpz-15" value="gateway" style="rounded=1;whiteSpace=wrap;html=1;" vertex="1" parent="1">
          <mxGeometry x="510" y="-950" width="120" height="60" as="geometry" />
        </mxCell>
        <mxCell id="yxDVQ3og8tzMWJ6YALpz-16" value="game data" style="rounded=1;whiteSpace=wrap;html=1;" vertex="1" parent="1">
          <mxGeometry x="620" y="-220" width="120" height="60" as="geometry" />
        </mxCell>
        <mxCell id="yxDVQ3og8tzMWJ6YALpz-18" value="board to gid" style="rounded=1;whiteSpace=wrap;html=1;" vertex="1" parent="1">
          <mxGeometry x="430" y="-220" width="120" height="60" as="geometry" />
        </mxCell>
        <mxCell id="yxDVQ3og8tzMWJ6YALpz-51" style="edgeStyle=orthogonalEdgeStyle;rounded=0;orthogonalLoop=1;jettySize=auto;html=1;exitX=0;exitY=0;exitDx=0;exitDy=0;entryX=1;entryY=1;entryDx=0;entryDy=0;" edge="1" parent="1" source="yxDVQ3og8tzMWJ6YALpz-19" target="yxDVQ3og8tzMWJ6YALpz-1">
          <mxGeometry relative="1" as="geometry" />
        </mxCell>
        <mxCell id="yxDVQ3og8tzMWJ6YALpz-52" value="call to see&lt;div&gt;&amp;nbsp;login data&lt;/div&gt;" style="edgeLabel;html=1;align=center;verticalAlign=middle;resizable=0;points=[];" vertex="1" connectable="0" parent="yxDVQ3og8tzMWJ6YALpz-51">
          <mxGeometry x="-0.4508" relative="1" as="geometry">
            <mxPoint as="offset" />
          </mxGeometry>
        </mxCell>
        <mxCell id="yxDVQ3og8tzMWJ6YALpz-19" value="loginer/sign up" style="rounded=1;whiteSpace=wrap;html=1;" vertex="1" parent="1">
          <mxGeometry x="1070" y="-690" width="120" height="60" as="geometry" />
        </mxCell>
        <mxCell id="yxDVQ3og8tzMWJ6YALpz-21" style="edgeStyle=orthogonalEdgeStyle;rounded=0;orthogonalLoop=1;jettySize=auto;html=1;exitX=0.75;exitY=1;exitDx=0;exitDy=0;entryX=0.325;entryY=-0.033;entryDx=0;entryDy=0;entryPerimeter=0;" edge="1" parent="1" source="yxDVQ3og8tzMWJ6YALpz-13" target="yxDVQ3og8tzMWJ6YALpz-11">
          <mxGeometry relative="1" as="geometry" />
        </mxCell>
        <mxCell id="yxDVQ3og8tzMWJ6YALpz-23" style="edgeStyle=orthogonalEdgeStyle;rounded=0;orthogonalLoop=1;jettySize=auto;html=1;exitX=0.25;exitY=1;exitDx=0;exitDy=0;entryX=0.317;entryY=0;entryDx=0;entryDy=0;entryPerimeter=0;" edge="1" parent="1" source="yxDVQ3og8tzMWJ6YALpz-11" target="yxDVQ3og8tzMWJ6YALpz-9">
          <mxGeometry relative="1" as="geometry" />
        </mxCell>
        <mxCell id="yxDVQ3og8tzMWJ6YALpz-46" style="edgeStyle=orthogonalEdgeStyle;rounded=0;orthogonalLoop=1;jettySize=auto;html=1;exitX=0;exitY=0;exitDx=0;exitDy=0;entryX=1;entryY=1;entryDx=0;entryDy=0;" edge="1" parent="1" source="yxDVQ3og8tzMWJ6YALpz-26" target="yxDVQ3og8tzMWJ6YALpz-2">
          <mxGeometry relative="1" as="geometry" />
        </mxCell>
        <mxCell id="yxDVQ3og8tzMWJ6YALpz-68" value="start us a game" style="edgeLabel;html=1;align=center;verticalAlign=middle;resizable=0;points=[];" vertex="1" connectable="0" parent="yxDVQ3og8tzMWJ6YALpz-46">
          <mxGeometry x="0.064" y="1" relative="1" as="geometry">
            <mxPoint as="offset" />
          </mxGeometry>
        </mxCell>
        <mxCell id="yxDVQ3og8tzMWJ6YALpz-47" style="edgeStyle=orthogonalEdgeStyle;rounded=0;orthogonalLoop=1;jettySize=auto;html=1;exitX=1;exitY=0;exitDx=0;exitDy=0;" edge="1" parent="1" source="yxDVQ3og8tzMWJ6YALpz-26" target="yxDVQ3og8tzMWJ6YALpz-1">
          <mxGeometry relative="1" as="geometry">
            <Array as="points">
              <mxPoint x="570" y="-690" />
              <mxPoint x="770" y="-690" />
            </Array>
          </mxGeometry>
        </mxCell>
        <mxCell id="yxDVQ3og8tzMWJ6YALpz-48" value="login call" style="edgeLabel;html=1;align=center;verticalAlign=middle;resizable=0;points=[];" vertex="1" connectable="0" parent="yxDVQ3og8tzMWJ6YALpz-47">
          <mxGeometry x="-0.5152" y="-2" relative="1" as="geometry">
            <mxPoint as="offset" />
          </mxGeometry>
        </mxCell>
        <mxCell id="yxDVQ3og8tzMWJ6YALpz-26" value="matchmaker" style="rounded=1;whiteSpace=wrap;html=1;" vertex="1" parent="1">
          <mxGeometry x="450" y="-660" width="120" height="60" as="geometry" />
        </mxCell>
        <mxCell id="yxDVQ3og8tzMWJ6YALpz-27" value="AI" style="rounded=1;whiteSpace=wrap;html=1;" vertex="1" parent="1">
          <mxGeometry x="480" y="-770" width="120" height="60" as="geometry" />
        </mxCell>
        <mxCell id="yxDVQ3og8tzMWJ6YALpz-62" style="edgeStyle=orthogonalEdgeStyle;rounded=0;orthogonalLoop=1;jettySize=auto;html=1;exitX=0.25;exitY=0;exitDx=0;exitDy=0;entryX=1;entryY=1;entryDx=0;entryDy=0;" edge="1" parent="1" source="yxDVQ3og8tzMWJ6YALpz-28" target="yxDVQ3og8tzMWJ6YALpz-59">
          <mxGeometry relative="1" as="geometry" />
        </mxCell>
        <mxCell id="yxDVQ3og8tzMWJ6YALpz-63" value="are you still alive" style="edgeLabel;html=1;align=center;verticalAlign=middle;resizable=0;points=[];" vertex="1" connectable="0" parent="yxDVQ3og8tzMWJ6YALpz-62">
          <mxGeometry x="-0.1759" relative="1" as="geometry">
            <mxPoint as="offset" />
          </mxGeometry>
        </mxCell>
        <mxCell id="yxDVQ3og8tzMWJ6YALpz-28" value="is active" style="rounded=1;whiteSpace=wrap;html=1;" vertex="1" parent="1">
          <mxGeometry x="960" y="-840" width="120" height="60" as="geometry" />
        </mxCell>
        <mxCell id="yxDVQ3og8tzMWJ6YALpz-30" style="edgeStyle=orthogonalEdgeStyle;rounded=0;orthogonalLoop=1;jettySize=auto;html=1;exitX=0;exitY=0.5;exitDx=0;exitDy=0;entryX=0.967;entryY=0.117;entryDx=0;entryDy=0;entryPerimeter=0;" edge="1" parent="1" source="yxDVQ3og8tzMWJ6YALpz-15" target="yxDVQ3og8tzMWJ6YALpz-2">
          <mxGeometry relative="1" as="geometry" />
        </mxCell>
        <mxCell id="yxDVQ3og8tzMWJ6YALpz-58" value="move or&amp;nbsp;&lt;div&gt;get my game curent state&lt;/div&gt;" style="edgeLabel;html=1;align=center;verticalAlign=middle;resizable=0;points=[];" vertex="1" connectable="0" parent="yxDVQ3og8tzMWJ6YALpz-30">
          <mxGeometry x="-0.2317" relative="1" as="geometry">
            <mxPoint as="offset" />
          </mxGeometry>
        </mxCell>
        <mxCell id="yxDVQ3og8tzMWJ6YALpz-31" style="edgeStyle=orthogonalEdgeStyle;rounded=0;orthogonalLoop=1;jettySize=auto;html=1;exitX=1;exitY=0.25;exitDx=0;exitDy=0;entryX=0.117;entryY=-0.033;entryDx=0;entryDy=0;entryPerimeter=0;" edge="1" parent="1" source="yxDVQ3og8tzMWJ6YALpz-15" target="yxDVQ3og8tzMWJ6YALpz-1">
          <mxGeometry relative="1" as="geometry" />
        </mxCell>
        <mxCell id="yxDVQ3og8tzMWJ6YALpz-57" value="login see&amp;nbsp;&lt;div&gt;my games&lt;/div&gt;&lt;div&gt;ai make a move&amp;nbsp;&lt;/div&gt;&lt;div&gt;anilize my game&amp;nbsp;&lt;/div&gt;&lt;div&gt;start new game&lt;/div&gt;" style="edgeLabel;html=1;align=center;verticalAlign=middle;resizable=0;points=[];" vertex="1" connectable="0" parent="yxDVQ3og8tzMWJ6YALpz-31">
          <mxGeometry x="-0.1532" y="-3" relative="1" as="geometry">
            <mxPoint as="offset" />
          </mxGeometry>
        </mxCell>
        <mxCell id="yxDVQ3og8tzMWJ6YALpz-35" style="edgeStyle=orthogonalEdgeStyle;rounded=0;orthogonalLoop=1;jettySize=auto;html=1;exitX=0.75;exitY=0;exitDx=0;exitDy=0;entryX=0.117;entryY=0.883;entryDx=0;entryDy=0;entryPerimeter=0;" edge="1" parent="1" source="yxDVQ3og8tzMWJ6YALpz-3" target="yxDVQ3og8tzMWJ6YALpz-28">
          <mxGeometry relative="1" as="geometry" />
        </mxCell>
        <mxCell id="yxDVQ3og8tzMWJ6YALpz-39" style="edgeStyle=orthogonalEdgeStyle;rounded=0;orthogonalLoop=1;jettySize=auto;html=1;exitX=0.25;exitY=1;exitDx=0;exitDy=0;entryX=0.367;entryY=0.067;entryDx=0;entryDy=0;entryPerimeter=0;" edge="1" parent="1" source="yxDVQ3og8tzMWJ6YALpz-10" target="yxDVQ3og8tzMWJ6YALpz-7">
          <mxGeometry relative="1" as="geometry" />
        </mxCell>
        <mxCell id="yxDVQ3og8tzMWJ6YALpz-40" value="members data" style="rounded=1;whiteSpace=wrap;html=1;" vertex="1" parent="1">
          <mxGeometry x="960" y="-220" width="120" height="60" as="geometry" />
        </mxCell>
        <mxCell id="yxDVQ3og8tzMWJ6YALpz-54" style="edgeStyle=orthogonalEdgeStyle;rounded=0;orthogonalLoop=1;jettySize=auto;html=1;exitX=1;exitY=0.5;exitDx=0;exitDy=0;entryX=0;entryY=0.5;entryDx=0;entryDy=0;" edge="1" parent="1" source="yxDVQ3og8tzMWJ6YALpz-41" target="yxDVQ3og8tzMWJ6YALpz-1">
          <mxGeometry relative="1" as="geometry" />
        </mxCell>
        <mxCell id="yxDVQ3og8tzMWJ6YALpz-55" value="get game&amp;nbsp;&lt;div&gt;data&amp;nbsp;&lt;/div&gt;" style="edgeLabel;html=1;align=center;verticalAlign=middle;resizable=0;points=[];" vertex="1" connectable="0" parent="yxDVQ3og8tzMWJ6YALpz-54">
          <mxGeometry x="-0.0462" y="-1" relative="1" as="geometry">
            <mxPoint as="offset" />
          </mxGeometry>
        </mxCell>
        <mxCell id="yxDVQ3og8tzMWJ6YALpz-41" value="game anilizer" style="rounded=1;whiteSpace=wrap;html=1;" vertex="1" parent="1">
          <mxGeometry x="570" y="-850" width="120" height="60" as="geometry" />
        </mxCell>
        <mxCell id="yxDVQ3og8tzMWJ6YALpz-42" style="edgeStyle=orthogonalEdgeStyle;rounded=0;orthogonalLoop=1;jettySize=auto;html=1;exitX=0;exitY=0;exitDx=0;exitDy=0;entryX=0.858;entryY=1;entryDx=0;entryDy=0;entryPerimeter=0;" edge="1" parent="1" source="yxDVQ3og8tzMWJ6YALpz-3" target="yxDVQ3og8tzMWJ6YALpz-41">
          <mxGeometry relative="1" as="geometry" />
        </mxCell>
        <mxCell id="yxDVQ3og8tzMWJ6YALpz-44" style="edgeStyle=orthogonalEdgeStyle;rounded=0;orthogonalLoop=1;jettySize=auto;html=1;exitX=0.5;exitY=1;exitDx=0;exitDy=0;entryX=0.675;entryY=-0.033;entryDx=0;entryDy=0;entryPerimeter=0;" edge="1" parent="1" source="yxDVQ3og8tzMWJ6YALpz-2" target="yxDVQ3og8tzMWJ6YALpz-6">
          <mxGeometry relative="1" as="geometry" />
        </mxCell>
        <mxCell id="yxDVQ3og8tzMWJ6YALpz-45" style="edgeStyle=orthogonalEdgeStyle;rounded=0;orthogonalLoop=1;jettySize=auto;html=1;exitX=0.75;exitY=1;exitDx=0;exitDy=0;entryX=0.092;entryY=-0.017;entryDx=0;entryDy=0;entryPerimeter=0;" edge="1" parent="1" source="yxDVQ3og8tzMWJ6YALpz-6" target="yxDVQ3og8tzMWJ6YALpz-4">
          <mxGeometry relative="1" as="geometry" />
        </mxCell>
        <mxCell id="yxDVQ3og8tzMWJ6YALpz-49" style="edgeStyle=orthogonalEdgeStyle;rounded=0;orthogonalLoop=1;jettySize=auto;html=1;exitX=1;exitY=0.25;exitDx=0;exitDy=0;entryX=0.433;entryY=0.983;entryDx=0;entryDy=0;entryPerimeter=0;" edge="1" parent="1" source="yxDVQ3og8tzMWJ6YALpz-4" target="yxDVQ3og8tzMWJ6YALpz-1">
          <mxGeometry relative="1" as="geometry" />
        </mxCell>
        <mxCell id="yxDVQ3og8tzMWJ6YALpz-50" value="call to save game data&lt;div&gt;update new elo&lt;/div&gt;&lt;div&gt;are players still active&lt;/div&gt;" style="edgeLabel;html=1;align=center;verticalAlign=middle;resizable=0;points=[];" vertex="1" connectable="0" parent="yxDVQ3og8tzMWJ6YALpz-49">
          <mxGeometry x="-0.8552" y="-2" relative="1" as="geometry">
            <mxPoint as="offset" />
          </mxGeometry>
        </mxCell>
        <mxCell id="yxDVQ3og8tzMWJ6YALpz-53" style="edgeStyle=orthogonalEdgeStyle;rounded=0;orthogonalLoop=1;jettySize=auto;html=1;exitX=0.5;exitY=0;exitDx=0;exitDy=0;entryX=0.742;entryY=-0.1;entryDx=0;entryDy=0;entryPerimeter=0;" edge="1" parent="1" source="yxDVQ3og8tzMWJ6YALpz-41" target="yxDVQ3og8tzMWJ6YALpz-41">
          <mxGeometry relative="1" as="geometry" />
        </mxCell>
        <mxCell id="yxDVQ3og8tzMWJ6YALpz-56" style="edgeStyle=orthogonalEdgeStyle;rounded=0;orthogonalLoop=1;jettySize=auto;html=1;exitX=0.5;exitY=1;exitDx=0;exitDy=0;entryX=0.4;entryY=0.05;entryDx=0;entryDy=0;entryPerimeter=0;" edge="1" parent="1" source="yxDVQ3og8tzMWJ6YALpz-7" target="yxDVQ3og8tzMWJ6YALpz-40">
          <mxGeometry relative="1" as="geometry" />
        </mxCell>
        <mxCell id="yxDVQ3og8tzMWJ6YALpz-60" style="edgeStyle=orthogonalEdgeStyle;rounded=0;orthogonalLoop=1;jettySize=auto;html=1;exitX=0;exitY=1;exitDx=0;exitDy=0;entryX=0.75;entryY=0;entryDx=0;entryDy=0;" edge="1" parent="1" source="yxDVQ3og8tzMWJ6YALpz-59" target="yxDVQ3og8tzMWJ6YALpz-14">
          <mxGeometry relative="1" as="geometry" />
        </mxCell>
        <mxCell id="yxDVQ3og8tzMWJ6YALpz-61" value="evry thing i can do" style="edgeLabel;html=1;align=center;verticalAlign=middle;resizable=0;points=[];" vertex="1" connectable="0" parent="yxDVQ3og8tzMWJ6YALpz-60">
          <mxGeometry x="-0.24" y="-1" relative="1" as="geometry">
            <mxPoint as="offset" />
          </mxGeometry>
        </mxCell>
        <mxCell id="yxDVQ3og8tzMWJ6YALpz-59" value="users&amp;nbsp;" style="rounded=1;whiteSpace=wrap;html=1;" vertex="1" parent="1">
          <mxGeometry x="640" y="-1250" width="120" height="60" as="geometry" />
        </mxCell>
      </root>
    </mxGraphModel>
  </diagram>
</mxfile>
